<?xml version="1.0" standalone="no"?>
<!DOCTYPE svg PUBLIC "-//W3C//DTD SVG 20010904//EN"
 "http://www.w3.org/TR/2001/REC-SVG-20010904/DTD/svg10.dtd">
<svg version="1.0" xmlns="http://www.w3.org/2000/svg"
 width="673.000000pt" height="673.000000pt" viewBox="0 0 673.000000 673.000000"
 preserveAspectRatio="xMidYMid meet">
<metadata>
Created by potrace 1.14, written by Peter Selinger 2001-2017
</metadata>
<g transform="translate(0.000000,673.000000) scale(0.100000,-0.100000)"
fill="#000000" stroke="none">
<path d="M1900 4145 l0 -1075 -450 0 c-247 0 -450 -2 -450 -5 0 -2 23 -37 51
-77 69 -100 180 -262 205 -301 l21 -32 -139 -200 c-76 -110 -138 -203 -138
-207 0 -5 203 -8 450 -8 l450 0 0 -385 0 -385 1485 0 1485 0 0 385 0 385 450
0 c248 0 450 3 450 8 0 4 -62 97 -139 207 -135 197 -137 200 -122 225 9 14 71
105 138 204 68 98 123 180 123 182 0 2 -202 4 -450 4 l-450 0 -1 668 -1 667
-132 125 c-72 69 -216 206 -320 305 -105 99 -237 226 -295 282 l-106 103
-1057 0 -1058 0 0 -1075z m1950 470 l0 -375 390 0 390 0 0 -585 0 -585 -145 0
-145 0 0 35 0 35 -955 0 -955 0 0 -35 0 -35 -145 0 -145 0 0 960 0 960 855 0
855 0 0 -375z m600 -141 c0 -2 -83 -4 -185 -4 l-185 0 0 181 0 181 185 -177
c102 -98 185 -179 185 -181z m635 -1485 c3 -4 1 -28 -5 -55 -11 -49 -11 -50
-45 -46 -27 3 -36 -1 -50 -22 -29 -44 -15 -56 64 -56 77 0 74 -3 86 78 l7 42
59 0 59 0 0 -60 0 -60 50 0 50 0 0 -55 0 -55 -50 0 -50 0 0 -100 c0 -94 1
-100 24 -116 14 -8 35 -14 48 -12 20 3 24 -3 31 -45 5 -26 6 -51 3 -55 -4 -3
-35 -8 -70 -10 -135 -9 -178 44 -184 226 l-4 112 -69 0 -69 0 0 -165 0 -165
-70 0 -70 0 0 165 0 165 -30 0 c-30 0 -30 1 -30 55 0 54 1 55 29 55 27 0 29 3
34 51 8 62 44 115 90 128 33 10 152 10 162 0z m-1655 -309 l0 -310 -61 0 c-52
0 -62 3 -66 20 -7 25 -8 25 -46 -2 -46 -33 -129 -32 -176 1 -98 70 -111 278
-23 377 48 56 142 73 193 35 16 -12 30 -21 31 -21 2 0 2 47 0 105 l-4 105 76
0 76 0 0 -310z m-993 121 c52 -24 97 -85 113 -152 37 -155 -79 -300 -230 -286
-146 13 -233 153 -190 307 13 49 66 109 114 131 54 24 139 24 193 0z m523 5
c0 -8 -5 -37 -12 -65 -10 -45 -14 -50 -33 -45 -34 8 -92 -21 -109 -55 -12 -22
-16 -61 -16 -151 l0 -120 -70 0 -70 0 0 220 0 220 60 0 c60 0 60 0 60 -29 0
-39 15 -47 34 -20 25 37 68 59 114 59 30 0 42 -4 42 -14z m875 0 c42 -18 43
-26 8 -74 -15 -20 -29 -39 -30 -41 -2 -3 -9 1 -15 7 -18 18 -62 14 -91 -9 -40
-30 -53 -91 -32 -146 9 -24 25 -48 35 -53 24 -13 76 -13 100 0 16 9 23 4 46
-35 26 -44 26 -46 8 -60 -72 -55 -207 -43 -278 23 -90 85 -89 258 2 345 55 53
174 73 247 43z m441 -13 c-3 -16 -8 -45 -12 -65 -6 -34 -8 -37 -34 -32 -32 7
-82 -16 -104 -48 -13 -18 -16 -51 -16 -150 l0 -128 -70 0 -70 0 0 220 0 221
58 -3 c56 -3 57 -3 60 -35 4 -38 16 -42 32 -12 18 32 71 59 118 59 42 0 43 -1
38 -27z m341 1 c60 -45 68 -73 71 -256 l4 -168 -61 0 c-46 0 -61 3 -61 14 0
26 -19 28 -51 5 -38 -27 -114 -35 -149 -17 -40 22 -70 75 -70 126 0 38 5 50
38 82 37 37 116 70 169 70 13 0 26 7 30 16 15 39 -75 59 -127 29 -38 -22 -48
-18 -71 26 -24 49 -20 56 49 81 67 25 191 20 229 -8z m-3055 -79 c9 -49 20
-120 24 -157 7 -71 19 -88 28 -40 2 15 17 87 32 160 l28 132 62 0 62 0 26
-112 c15 -62 30 -132 34 -156 4 -24 12 -43 17 -43 6 0 15 38 21 83 6 46 17
116 23 156 l13 72 65 0 65 0 -5 -27 c-2 -16 -24 -115 -48 -220 l-43 -193 -87
0 c-87 0 -87 0 -93 28 -3 15 -15 80 -27 145 -13 64 -26 117 -29 117 -4 0 -10
-26 -14 -57 -3 -32 -14 -98 -23 -146 l-17 -88 -85 3 -86 3 -12 55 c-8 30 -24
102 -38 160 -13 58 -31 131 -38 163 l-15 58 72 -3 71 -3 17 -90z m3068 -745
l0 -270 -1245 0 -1245 0 0 270 0 270 1245 0 1245 0 0 -270z"/>
<path d="M2430 4400 l0 -110 530 0 530 0 0 110 0 110 -530 0 -530 0 0 -110z"/>
<path d="M2430 3720 l0 -110 955 0 956 0 -3 108 -3 107 -952 3 -953 2 0 -110z"/>
<path d="M3175 2685 c-22 -21 -25 -33 -25 -95 0 -80 19 -110 69 -110 50 0 61
21 61 119 0 84 -1 88 -25 99 -38 17 -53 15 -80 -13z"/>
<path d="M2291 2684 c-26 -33 -29 -130 -6 -174 13 -24 22 -30 49 -30 42 0 64
25 72 81 16 115 -59 195 -115 123z"/>
<path d="M4473 2550 c-43 -26 -46 -66 -6 -76 43 -11 77 14 81 59 3 33 1 37
-20 37 -13 0 -38 -9 -55 -20z"/>
</g>
</svg>
